<?xml version="1.0" encoding="UTF-8"?>
<svg width="50px" height="50px" viewBox="0 0 50 50" version="1.1" xmlns="http://www.w3.org/2000/svg" xmlns:xlink="http://www.w3.org/1999/xlink">
    <!-- Generator: Sketch 51.2 (57519) - http://www.bohemiancoding.com/sketch -->
    <title>lightning icon</title>
    <desc>Created with Sketch.</desc>
    <defs></defs>
    <g id="Style-Guide" stroke="none" stroke-width="1" fill="none" fill-rule="evenodd">
        <g id="screen-2" transform="translate(-163.000000, -334.000000)" fill-rule="nonzero">
            <g id="lightning-icon" transform="translate(164.000000, 335.000000)">
                <circle id="Oval-3-Copy" stroke="#F5F5F5" cx="24" cy="24" r="24"></circle>
                <g id="Weather" transform="translate(15.000000, 11.000000)" fill="#FFCF48">
                    <g id="Layer_1">
                        <path d="M4.5817563,26.99892 C4.47867227,26.99892 4.37558824,26.9787857 4.27908403,26.93628 C3.94351261,26.7908657 3.75708403,26.4239743 3.82946218,26.05932 L6.06221849,14.9183486 L1.10321849,14.9183486 C0.864151261,14.9183486 0.63605042,14.8020171 0.491294118,14.6073857 C0.346537815,14.4105171 0.300478992,14.15772 0.364084034,13.9205829 L4.09046218,0.571551429 C4.18477311,0.23598 4.48744538,0.00331714286 4.82959664,0.00331714286 L14.3308739,0.00331714286 C14.616,0.00331714286 14.8791933,0.166628571 15.0129832,0.4239 C15.1445798,0.683408571 15.1248403,0.994371429 14.9625378,1.23374571 L10.2755042,8.09953714 L16.4451933,8.09953714 C16.7325126,8.09953714 16.9935126,8.26284857 17.1273025,8.52012 C17.2610924,8.77739143 17.2391597,9.09059143 17.0768571,9.32996571 L5.21561345,26.6633486 C5.06427731,26.8781143 4.82521008,26.99892 4.5817563,26.99892 Z" id="Shape"></path>
                    </g>
                </g>
            </g>
        </g>
    </g>
</svg>