<svg xmlns="http://www.w3.org/2000/svg" xmlns:xlink="http://www.w3.org/1999/xlink" viewBox="0 0 1024 1024"><defs><style>.cls-1{fill:url(#linear-gradient);}.cls-2{fill:#fff;}.cls-3{fill:#232323;}</style><linearGradient id="linear-gradient" x1="80.57" y1="71.74" x2="1058.57" y2="1069.74" gradientUnits="userSpaceOnUse"><stop offset="0" stop-color="#3fd0ae"/><stop offset="0.66" stop-color="#2cbd9b"/></linearGradient></defs><title>Artboard 1</title><g id="Artwork_-_Edit_Me" data-name="Artwork - Edit Me"><rect class="cls-1" width="1024" height="1024"/><path class="cls-2" d="M172.94,585c14-76,75.52-133.38,149.11-133.38S457.2,509,471.18,585h59.44c-6.37-49-27-94.31-59.59-130-39.79-43.48-92.7-67.42-149-67.42s-109.18,23.94-149,67.42l-1.7,1.92V186c0-17.67-13.11-32-29.29-32s-29.29,14.33-29.29,32V585Z"/><path class="cls-2" d="M830.16,625c.24,3.91.38,7.85.38,11.83,0,91.64-66.94,166.2-149.23,166.2s-149.22-74.56-149.22-166.2q0-6,.38-11.83H468.33c.24,3.91.38,7.85.38,11.83,0,91.64-66.94,166.2-149.23,166.2s-149.22-74.56-149.22-166.2q0-6,.38-11.83H113.06c-.17,3.92-.27,7.87-.27,11.83,0,61.49,21.5,119.3,60.54,162.78S264.27,867,319.48,867s107.11-23.94,146.15-67.42a230.78,230.78,0,0,0,34.77-51.28,230.74,230.74,0,0,0,34.76,51.28C574.2,843.09,626.1,867,681.31,867s107.11-23.94,146.15-67.42S888,698.32,888,636.83q0-5.94-.27-11.83Z"/></g><g id="Mask"><path class="cls-3" d="M0,799v225H225C100.74,1024,0,923.26,0,799Z"/><path class="cls-3" d="M225,0H0V225C0,100.74,100.74,0,225,0Z"/><path class="cls-3" d="M799,0c124.28,0,225,100.74,225,225V0Z"/><path class="cls-3" d="M799,1024h225V799C1024,923.26,923.26,1024,799,1024Z"/></g></svg>