<?xml version="1.0" encoding="UTF-8"?>
<svg width="29px" height="26px" viewBox="0 0 29 26" version="1.1" xmlns="http://www.w3.org/2000/svg" xmlns:xlink="http://www.w3.org/1999/xlink">
    <!-- Generator: Sketch 51.2 (57519) - http://www.bohemiancoding.com/sketch -->
    <title>Profile</title>
    <desc>Created with Sketch.</desc>
    <defs></defs>
    <g id="Style-Guide" stroke="none" stroke-width="1" fill="none" fill-rule="evenodd">
        <g id="screen-2" transform="translate(-131.000000, -615.000000)" fill="#DADADA" fill-rule="nonzero">
            <g id="Profile" transform="translate(131.000000, 615.000000)">
                <g id="profile_close-[#1358]">
                    <g id="Page-1">
                        <g id="Dribbble-Light-Preview">
                            <g id="icons">
                                <path d="M4.50280623,21.9041483 C5.91655623,16.6593207 9.89802967,14.367331 14.5934469,14.3341138 C14.6199547,14.3341138 14.6446953,14.1383069 14.6712031,14.1383069 C14.6959437,14.1383069 14.7189172,14.4372621 14.745425,14.4355138 C19.4426094,14.468731 23.4276172,16.6593207 24.8396,21.9041483 L4.50280623,21.9041483 Z M14.6712031,3.44585172 C16.63985,3.44585172 18.2462234,5.01405517 18.2462234,6.94240345 C18.2462234,8.84627586 16.6822625,10.3917517 14.7471922,10.4319621 L14.6712031,10.4284655 L14.5934469,10.4319621 C12.6583765,10.3917517 11.0961828,8.84627586 11.0961828,6.94240345 C11.0961828,5.01405517 12.6990219,3.44585172 14.6712031,3.44585172 Z M20.0787969,11.6714897 C21.1957555,10.3820408 21.8132986,8.74193583 21.8212437,7.04380345 C21.8212437,3.18186207 18.6191,0 14.6712031,0 C10.721539,0 7.52116248,3.10668621 7.52116248,6.96862759 C7.52116248,8.70291724 8.19269373,10.2588828 9.26007498,11.4809276 C4.04687185,13.5631241 0.371121854,18.9583034 0.371121854,24.8097828 C0.371121854,24.8797138 -0.00175470836,25.4007 6.217458e-06,25.4007 L28.958914,25.4007 C29.0949875,18.8079517 25.1682969,13.7064828 20.0787969,11.6714897 Z" id="profile_close-[#1358]"></path>
                            </g>
                        </g>
                    </g>
                </g>
            </g>
        </g>
    </g>
</svg>