<?xml version="1.0" encoding="UTF-8"?>
<svg width="29px" height="27px" viewBox="0 0 29 27" version="1.1" xmlns="http://www.w3.org/2000/svg" xmlns:xlink="http://www.w3.org/1999/xlink">
    <!-- Generator: Sketch 51.2 (57519) - http://www.bohemiancoding.com/sketch -->
    <title>Star</title>
    <desc>Created with Sketch.</desc>
    <defs></defs>
    <g id="Style-Guide" stroke="none" stroke-width="1" fill="none" fill-rule="evenodd">
        <g id="screen-2" transform="translate(-218.000000, -614.000000)" fill="#DADADA" fill-rule="nonzero">
            <g id="Star" transform="translate(218.000000, 614.000000)">
                <path d="M22.0291411,26.9999928 C21.6818029,26.9999928 21.3422178,26.9247084 21.0274426,26.7801624 L20.8661784,26.7033723 L14.4977949,23.1755459 L8.12941138,26.704878 L7.96504599,26.7846795 C7.19592387,27.1283362 6.29623774,27.0462012 5.60655772,26.5693661 C4.87427896,26.0481332 4.51981262,25.1617999 4.69789622,24.2972833 L6.18183658,17.3078807 L3.69774834,15.1140937 L0.759329351,12.5167823 L0.638381235,12.3933159 C0.0538370378,11.7939068 -0.148206643,10.9329813 0.111171496,10.1468298 C0.379428216,9.3578494 1.07255396,8.77364255 1.90988708,8.62759083 L2.06805,8.60048846 L9.35749995,7.81602514 L12.3750004,1.32651091 L12.4680374,1.16088526 C12.8778726,0.445243988 13.6545118,0.00105845083 14.4977949,0 C15.3397799,0 16.1166389,0.448694951 16.5275524,1.15937957 L16.6205894,1.3280166 L19.6411911,7.8205422 L26.930641,8.60500552 L27.0919052,8.63060221 C27.9276877,8.78117099 28.6208134,9.36236646 28.8875195,10.1543582 C29.1511244,10.9388215 28.9417911,11.8076034 28.3603098,12.4038557 L28.2393617,12.5212994 L22.8153038,17.3154092 L24.2992442,24.2897549 C24.4788576,25.1600688 24.1218893,26.0524818 23.3843802,26.5768946 C22.9898506,26.8531052 22.515521,27.0011883 22.0291411,26.9999928 Z M9.39316413,17.1166584 C9.33269008,17.3906936 8.67057667,20.4984331 8.08289287,23.2628758 L13.7317902,20.1355623 C14.2075966,19.872354 14.7910945,19.872354 15.2669009,20.1355623 L20.9157982,23.2598644 L19.5993244,17.0805219 C19.4884352,16.5589609 19.6701272,16.0193678 20.0769144,15.662164 L24.8838268,11.4131132 L18.4208556,10.7189911 C17.8758328,10.6597869 17.4035555,10.3254319 17.1788115,9.83966948 L14.4993455,4.08643657 L11.8229808,9.83966948 C11.5965907,10.3245009 11.1252032,10.6572579 10.5809367,10.7189911 L4.11796551,11.4131132 L8.92487784,15.662164 C9.34222266,16.0279374 9.52163503,16.5851912 9.39316413,17.1166584 Z" id="Shape"></path>
            </g>
        </g>
    </g>
</svg>