<?xml version="1.0" encoding="UTF-8"?>
<svg width="28px" height="26px" viewBox="0 0 28 26" version="1.1" xmlns="http://www.w3.org/2000/svg" xmlns:xlink="http://www.w3.org/1999/xlink">
    <!-- Generator: Sketch 51.2 (57519) - http://www.bohemiancoding.com/sketch -->
    <title>Trip</title>
    <desc>Created with Sketch.</desc>
    <defs></defs>
    <g id="Style-Guide" stroke="none" stroke-width="1" fill="none" fill-rule="evenodd">
        <g id="screen-2" transform="translate(-305.000000, -614.000000)" fill="#DADADA" fill-rule="nonzero" stroke="#DADADA" stroke-width="2">
            <g id="Trip" transform="translate(306.000000, 615.000000)">
                <g id="trip-route-travel-dot-connection-relationship">
                    <path d="M23.277551,18.4227741 C22.1550558,18.4227741 21.2067111,19.1946883 20.8497887,20.2650515 L5.17278912,20.2650515 C3.27092698,20.2650515 1.72426304,18.6125286 1.72426304,16.5804967 C1.72426304,14.5484647 3.27092698,12.8959419 5.17278912,12.8959419 L20.6911565,12.8959419 C23.5430875,12.8959419 25.8639456,10.4162365 25.8639456,7.36910963 C25.8639456,4.3219828 23.5430875,1.84227741 20.6911565,1.84227741 L5.01415692,1.84227741 C4.65723447,0.771914234 3.7088898,0 2.58639456,0 C1.16042902,0 0,1.2398527 0,2.76341611 C0,4.28697953 1.16042902,5.52683222 2.58639456,5.52683222 C3.7088898,5.52683222 4.65723447,4.75491799 5.01415692,3.68455482 L20.6911565,3.68455482 C22.5930186,3.68455482 24.1396825,5.33707765 24.1396825,7.36910963 C24.1396825,9.40114161 22.5930186,11.0536644 20.6911565,11.0536644 L5.17278912,11.0536644 C2.32085805,11.0536644 0,13.5333698 0,16.5804967 C0,19.6276235 2.32085805,22.1073289 5.17278912,22.1073289 L20.8497887,22.1073289 C21.2067111,23.1776921 22.1550558,23.9496063 23.277551,23.9496063 C24.7035166,23.9496063 25.8639456,22.7097536 25.8639456,21.1861902 C25.8639456,19.6626268 24.7035166,18.4227741 23.277551,18.4227741 Z M2.58639456,3.68455482 C2.11049796,3.68455482 1.72426304,3.27188468 1.72426304,2.76341611 C1.72426304,2.25494755 2.11049796,1.84227741 2.58639456,1.84227741 C3.06229116,1.84227741 3.44852608,2.25494755 3.44852608,2.76341611 C3.44852608,3.27188468 3.06229116,3.68455482 2.58639456,3.68455482 Z M23.277551,22.1073289 C22.8016544,22.1073289 22.4154195,21.6946588 22.4154195,21.1861902 C22.4154195,20.6777216 22.8016544,20.2650515 23.277551,20.2650515 C23.7534476,20.2650515 24.1396825,20.6777216 24.1396825,21.1861902 C24.1396825,21.6946588 23.7534476,22.1073289 23.277551,22.1073289 Z" id="Shape"></path>
                </g>
            </g>
        </g>
    </g>
</svg>