<?xml version="1.0" encoding="UTF-8"?>
<svg width="50px" height="50px" viewBox="0 0 50 50" version="1.1" xmlns="http://www.w3.org/2000/svg" xmlns:xlink="http://www.w3.org/1999/xlink">
    <!-- Generator: Sketch 51.2 (57519) - http://www.bohemiancoding.com/sketch -->
    <title>trip icon</title>
    <desc>Created with Sketch.</desc>
    <defs></defs>
    <g id="Style-Guide" stroke="none" stroke-width="1" fill="none" fill-rule="evenodd">
        <g id="screen-2" transform="translate(-69.000000, -334.000000)" fill-rule="nonzero">
            <g id="trip-icon" transform="translate(70.000000, 335.000000)">
                <circle id="Oval-3" stroke="#F5F5F5" cx="24" cy="24" r="24"></circle>
                <g id="Group-4" transform="translate(12.000000, 13.000000)" fill="#FFCF48" stroke="#FFCF48">
                    <g id="Trip-Copy" stroke-width="2">
                        <g id="trip-route-travel-dot-connection-relationship">
                            <path d="M22.3822606,17.6551585 C21.3029383,17.6551585 20.3910684,18.3949096 20.0478737,19.4206743 L4.97383569,19.4206743 C3.1451221,19.4206743 1.65794523,17.8370066 1.65794523,15.8896426 C1.65794523,13.9422787 3.1451221,12.3586109 4.97383569,12.3586109 L19.8953428,12.3586109 C22.6375842,12.3586109 24.8691784,9.98222661 24.8691784,7.0620634 C24.8691784,4.14190018 22.6375842,1.76551585 19.8953428,1.76551585 L4.82130473,1.76551585 C4.47811006,0.739751141 3.56624019,0 2.48691784,0 C1.11579714,0 0,1.18819217 0,2.64827377 C0,4.10835538 1.11579714,5.29654755 2.48691784,5.29654755 C3.56624019,5.29654755 4.47811006,4.55679641 4.82130473,3.5310317 L19.8953428,3.5310317 C21.7240563,3.5310317 23.2112332,5.11469941 23.2112332,7.0620634 C23.2112332,9.00942738 21.7240563,10.5930951 19.8953428,10.5930951 L4.97383569,10.5930951 C2.23159428,10.5930951 0,12.9694794 0,15.8896426 C0,18.8098059 2.23159428,21.1861902 4.97383569,21.1861902 L20.0478737,21.1861902 C20.3910684,22.2119549 21.3029383,22.951706 22.3822606,22.951706 C23.7533813,22.951706 24.8691784,21.7635139 24.8691784,20.3034323 C24.8691784,18.8433507 23.7533813,17.6551585 22.3822606,17.6551585 Z M2.48691784,3.5310317 C2.02932496,3.5310317 1.65794523,3.13555615 1.65794523,2.64827377 C1.65794523,2.1609914 2.02932496,1.76551585 2.48691784,1.76551585 C2.94451073,1.76551585 3.31589046,2.1609914 3.31589046,2.64827377 C3.31589046,3.13555615 2.94451073,3.5310317 2.48691784,3.5310317 Z M22.3822606,21.1861902 C21.9246677,21.1861902 21.553288,20.7907146 21.553288,20.3034323 C21.553288,19.8161499 21.9246677,19.4206743 22.3822606,19.4206743 C22.8398535,19.4206743 23.2112332,19.8161499 23.2112332,20.3034323 C23.2112332,20.7907146 22.8398535,21.1861902 22.3822606,21.1861902 Z" id="Shape"></path>
                        </g>
                    </g>
                    <circle id="Oval" cx="22" cy="20" r="1"></circle>
                    <circle id="Oval-2" cx="1.5" cy="2.5" r="1.5"></circle>
                </g>
            </g>
        </g>
    </g>
</svg>